<?xml version="1.0" encoding="utf-8"?>
<!-- Generator: Adobe Illustrator 25.1.0, SVG Export Plug-In . SVG Version: 6.00 Build 0)  -->
<svg version="1.1" id="Layer_1" xmlns="http://www.w3.org/2000/svg" xmlns:xlink="http://www.w3.org/1999/xlink" x="0px" y="0px"
	 viewBox="0 0 90.9 32" style="enable-background:new 0 0 90.9 32;" xml:space="preserve">
<style type="text/css">
	.st0{fill:#606161;}
	.st1{fill:#808184;}
	.st2{fill-rule:evenodd;clip-rule:evenodd;fill:#808184;}
</style>
<g>
	<path class="st0" d="M0,27L0,27c0-2.7,2-5,4.9-5c1.6,0,2.6,0.5,3.6,1.3l-0.7,0.8C7,23.4,6.2,23,4.8,23c-2.1,0-3.7,1.8-3.7,4v0
		c0,2.3,1.5,4,3.8,4c1.1,0,2.1-0.4,2.8-1v-2.4H4.8v-1h4v3.9C7.9,31.3,6.6,32,4.9,32C1.9,32,0,29.8,0,27z"/>
	<path class="st0" d="M11.1,27.8v-5.6h1.1v5.6c0,2.1,1.1,3.3,3,3.3c1.8,0,2.9-1.1,2.9-3.2v-5.6h1.1v5.6c0,2.8-1.6,4.3-4,4.3
		C12.8,32,11.1,30.5,11.1,27.8z M13.2,20.1h1.3v1.2h-1.3V20.1z M15.8,20.1h1.3v1.2h-1.3V20.1z"/>
	<path class="st0" d="M21.8,22.1h7v1h-5.9v3.3h5.3v1h-5.3v3.4h6v1h-7.1V22.1z"/>
	<path class="st0" d="M31.1,22.1h1.1l3.5,5.3l3.5-5.3h1.1v9.7h-1.1V24l-3.5,5.2h-0.1L32.1,24v7.8h-1.1V22.1z"/>
	<path class="st0" d="M43.1,22.1h7v1h-5.9v3.3h5.3v1h-5.3v3.4h6v1h-7.1V22.1z"/>
	<path class="st0" d="M51.7,30.4l0.7-0.8c1,0.9,2,1.4,3.3,1.4c1.3,0,2.2-0.7,2.2-1.6v0c0-0.9-0.5-1.4-2.5-1.8
		c-2.2-0.5-3.3-1.2-3.3-2.8v0c0-1.5,1.3-2.6,3.2-2.6c1.4,0,2.4,0.4,3.4,1.2L58.1,24c-0.9-0.7-1.8-1.1-2.8-1.1
		c-1.3,0-2.1,0.7-2.1,1.6v0c0,0.9,0.5,1.4,2.6,1.9c2.2,0.5,3.2,1.3,3.2,2.7v0c0,1.7-1.4,2.7-3.3,2.7C54.1,32,52.9,31.5,51.7,30.4z"
		/>
	<path class="st0" d="M70.3,23.1h-5.3v-1h6.6V23l-4.4,8.9h-1.2L70.3,23.1z"/>
	<path class="st0" d="M72.8,27L72.8,27c0-2.7,1.6-5,4.1-5s4.1,2.3,4.1,5v0c0,2.7-1.6,5-4.1,5C74.4,32,72.8,29.7,72.8,27z M79.9,27
		L79.9,27c0-2.1-1.2-4-3-4c-1.8,0-2.9,1.9-2.9,4v0c0,2.1,1.2,4,3,4C78.8,31,79.9,29.1,79.9,27z"/>
	<path class="st0" d="M82.7,27L82.7,27c0-2.7,1.6-5,4.1-5c2.5,0,4.1,2.3,4.1,5v0c0,2.7-1.6,5-4.1,5C84.3,32,82.7,29.7,82.7,27z
		 M89.8,27L89.8,27c0-2.1-1.2-4-3-4c-1.8,0-2.9,1.9-2.9,4v0c0,2.1,1.2,4,3,4C88.7,31,89.8,29.1,89.8,27z"/>
</g>
<g>
	<g>
		<path class="st1" d="M1,14.3h1c0.6,0,1,0.4,1,0.9v0c0,0.6-0.5,0.9-1.1,0.9H1.4V17H1V14.3z M2,15.7c0.4,0,0.6-0.2,0.6-0.5v0
			c0-0.3-0.2-0.5-0.6-0.5H1.4v1H2z"/>
		<path class="st1" d="M4.6,14.3H5L6.2,17H5.7l-0.3-0.6H4.2L3.9,17H3.4L4.6,14.3z M5.2,15.9l-0.5-1.1l-0.5,1.1H5.2z"/>
		<path class="st1" d="M7,14.3h1.2c0.3,0,0.6,0.1,0.8,0.3c0.1,0.1,0.2,0.3,0.2,0.6v0c0,0.4-0.3,0.7-0.6,0.8l0.7,1H8.7l-0.7-0.9H7.5
			V17H7V14.3z M8.2,15.7c0.3,0,0.5-0.2,0.5-0.4v0c0-0.3-0.2-0.4-0.6-0.4H7.5v0.9H8.2z"/>
		<path class="st1" d="M12.2,16.8C12,17,11.7,17,11.4,17c-0.8,0-1.4-0.6-1.4-1.4v0c0-0.7,0.6-1.4,1.4-1.4c0.8,0,1.4,0.6,1.4,1.4v0
			c0,0.3-0.1,0.6-0.3,0.8l0.3,0.3l-0.3,0.3L12.2,16.8z M11.9,16.5l-0.5-0.4l0.3-0.3l0.5,0.4c0.1-0.1,0.1-0.3,0.1-0.5v0
			c0-0.5-0.4-0.9-0.9-0.9c-0.5,0-0.9,0.4-0.9,0.9v0c0,0.5,0.4,0.9,0.9,0.9C11.6,16.6,11.7,16.6,11.9,16.5z"/>
		<path class="st1" d="M13.7,15.9v-1.5h0.5v1.5c0,0.5,0.3,0.8,0.7,0.8c0.4,0,0.7-0.2,0.7-0.7v-1.5H16v1.5c0,0.8-0.4,1.2-1.1,1.2
			C14.1,17,13.7,16.6,13.7,15.9z"/>
		<path class="st1" d="M17,14.3h2v0.4h-1.5v0.7h1.3v0.4h-1.3v0.7H19V17h-2V14.3z"/>
		<path class="st1" d="M21.4,14.3h0.5l0.8,1.3l0.8-1.3H24V17h-0.5v-1.9l-0.8,1.3h0l-0.8-1.2V17h-0.5V14.3z"/>
		<path class="st1" d="M25.1,15.9v-1.5h0.5v1.5c0,0.5,0.3,0.8,0.7,0.8c0.4,0,0.7-0.2,0.7-0.7v-1.5h0.5v1.5c0,0.8-0.4,1.2-1.1,1.2
			C25.5,17,25.1,16.6,25.1,15.9z"/>
		<path class="st1" d="M28.4,14.3h0.4l1.4,1.8v-1.8h0.5V17h-0.4l-1.5-1.9V17h-0.5V14.3z"/>
		<path class="st1" d="M31.8,14.3h0.5V17h-0.5V14.3z"/>
		<path class="st1" d="M33.2,15.7L33.2,15.7c0-0.8,0.6-1.4,1.4-1.4c0.5,0,0.8,0.2,1,0.4l-0.3,0.3c-0.2-0.2-0.4-0.3-0.7-0.3
			c-0.5,0-0.9,0.4-0.9,0.9v0c0,0.5,0.4,0.9,0.9,0.9c0.3,0,0.5-0.1,0.8-0.3l0.3,0.3c-0.3,0.3-0.6,0.5-1.1,0.5
			C33.8,17,33.2,16.4,33.2,15.7z"/>
		<path class="st1" d="M36.5,14.3H37V17h-0.5V14.3z"/>
		<path class="st1" d="M38.1,14.3h1c0.6,0,1,0.4,1,0.9v0c0,0.6-0.5,0.9-1.1,0.9h-0.5V17h-0.5V14.3z M39.1,15.7
			c0.4,0,0.6-0.2,0.6-0.5v0c0-0.3-0.2-0.5-0.6-0.5h-0.5v1H39.1z"/>
		<path class="st1" d="M41.7,14.3h0.4l1.2,2.7h-0.5l-0.3-0.6h-1.3L41,17h-0.5L41.7,14.3z M42.3,15.9l-0.5-1.1l-0.5,1.1H42.3z"/>
		<path class="st1" d="M44.1,14.3h0.5v2.2H46V17h-1.9V14.3z"/>
		<path class="st1" d="M48.4,14.3h0.5l0.8,1.3l0.8-1.3H51V17h-0.5v-1.9l-0.8,1.3h0l-0.8-1.2V17h-0.5V14.3z"/>
		<path class="st1" d="M52,15.9v-1.5h0.5v1.5c0,0.5,0.3,0.8,0.7,0.8c0.4,0,0.7-0.2,0.7-0.7v-1.5h0.5v1.5c0,0.8-0.4,1.2-1.1,1.2
			C52.4,17,52,16.6,52,15.9z"/>
		<path class="st1" d="M55.3,14.3h0.5v2.2h1.4V17h-1.9V14.3z"/>
		<path class="st1" d="M58.3,14.8h-0.8v-0.4h2.2v0.4h-0.8V17h-0.5V14.8z"/>
		<path class="st1" d="M60.5,14.3H61V17h-0.5V14.3z"/>
		<path class="st1" d="M62.1,14.3h1c0.6,0,1,0.4,1,0.9v0c0,0.6-0.5,0.9-1.1,0.9h-0.5V17h-0.5V14.3z M63.1,15.7
			c0.4,0,0.6-0.2,0.6-0.5v0c0-0.3-0.2-0.5-0.6-0.5h-0.5v1H63.1z"/>
		<path class="st1" d="M65,14.3h1.2c0.3,0,0.6,0.1,0.8,0.3c0.1,0.1,0.2,0.3,0.2,0.6v0c0,0.4-0.3,0.7-0.6,0.8l0.7,1h-0.6L66,16.1
			h-0.6V17H65V14.3z M66.1,15.7c0.3,0,0.5-0.2,0.5-0.4v0c0-0.3-0.2-0.4-0.5-0.4h-0.7v0.9H66.1z"/>
		<path class="st1" d="M68,15.7L68,15.7c0-0.8,0.6-1.4,1.4-1.4c0.8,0,1.4,0.6,1.4,1.4v0c0,0.7-0.6,1.4-1.4,1.4
			C68.6,17,68,16.4,68,15.7z M70.3,15.7L70.3,15.7c0-0.5-0.4-1-0.9-1c-0.5,0-0.9,0.4-0.9,0.9v0c0,0.5,0.4,0.9,0.9,0.9
			C69.9,16.6,70.3,16.2,70.3,15.7z"/>
		<path class="st1" d="M71.7,14.3h1c0.6,0,1,0.4,1,0.9v0c0,0.6-0.5,0.9-1.1,0.9h-0.5V17h-0.5V14.3z M72.7,15.7
			c0.4,0,0.6-0.2,0.6-0.5v0c0-0.3-0.2-0.5-0.6-0.5h-0.5v1H72.7z"/>
		<path class="st1" d="M74.5,15.7L74.5,15.7c0-0.8,0.6-1.4,1.4-1.4c0.8,0,1.4,0.6,1.4,1.4v0c0,0.7-0.6,1.4-1.4,1.4
			C75.1,17,74.5,16.4,74.5,15.7z M76.8,15.7L76.8,15.7c0-0.5-0.4-1-0.9-1c-0.5,0-0.9,0.4-0.9,0.9v0c0,0.5,0.4,0.9,0.9,0.9
			C76.4,16.6,76.8,16.2,76.8,15.7z M76.1,13.5l0.4,0.2l-0.5,0.4h-0.4L76.1,13.5z"/>
		<path class="st1" d="M78,16.6l0.3-0.3c0.3,0.2,0.5,0.3,0.8,0.3c0.3,0,0.5-0.1,0.5-0.3v0c0-0.2-0.1-0.3-0.6-0.4
			c-0.6-0.1-0.9-0.3-0.9-0.8v0c0-0.5,0.4-0.8,0.9-0.8c0.4,0,0.7,0.1,1,0.3L79.8,15c-0.2-0.2-0.5-0.3-0.7-0.3c-0.3,0-0.4,0.1-0.4,0.3
			v0c0,0.2,0.1,0.3,0.6,0.4c0.6,0.1,0.9,0.3,0.9,0.8v0c0,0.5-0.4,0.8-0.9,0.8C78.7,17,78.4,16.9,78,16.6z"/>
		<path class="st1" d="M81.1,14.3h0.5V17h-0.5V14.3z"/>
		<path class="st1" d="M83.3,14.8h-0.8v-0.4h2.2v0.4h-0.8V17h-0.5V14.8z"/>
		<path class="st1" d="M85.2,15.7L85.2,15.7c0-0.8,0.6-1.4,1.4-1.4c0.8,0,1.4,0.6,1.4,1.4v0c0,0.7-0.6,1.4-1.4,1.4
			C85.8,17,85.2,16.4,85.2,15.7z M87.5,15.7L87.5,15.7c0-0.5-0.4-1-0.9-1c-0.5,0-0.9,0.4-0.9,0.9v0c0,0.5,0.4,0.9,0.9,0.9
			C87.1,16.6,87.5,16.2,87.5,15.7z"/>
	</g>
	<path class="st1" d="M58.4,6.5L58.4,6.5c0-2.4,1.9-4.2,4.2-4.2c1.8,0,2.9,0.9,3.6,2.1L64,5.6c-0.3-0.6-0.7-1-1.4-1
		c-0.9,0-1.5,0.8-1.5,1.7v0c0,1,0.6,1.8,1.5,1.8c0.7,0,1.2-0.4,1.5-1l2.2,1.2c-0.7,1.2-1.8,2.1-3.8,2.1C60.3,10.6,58.4,8.9,58.4,6.5
		z"/>
	<path class="st1" d="M70.6,6.5L70.6,6.5c0-2.3,1.9-4.2,4.4-4.2c2.5,0,4.3,1.8,4.3,4.1v0c0,2.3-1.9,4.1-4.4,4.1
		C72.5,10.6,70.6,8.8,70.6,6.5z M76.6,6.5L76.6,6.5c0-1-0.6-1.8-1.7-1.8c-1,0-1.6,0.8-1.6,1.8v0c0,0.9,0.6,1.8,1.7,1.8
		C76,8.2,76.6,7.4,76.6,6.5z M75,0l2.6,0.6l-1.8,1.3h-1.9L75,0z"/>
	<g>
		<path class="st2" d="M48.9,0.6C48,0.5,48,0.5,47.6,1.5c-1.2,3-2.7,6-4.3,9c-0.3,0.5-0.6,1-0.9,1.6c0.9,0,1.7,0,2.5,0
			c0.4,0,0.5-0.1,0.6-0.5c0.2-0.6,0.4-1.1,0.6-1.6C47.1,6.9,48.1,3.8,48.9,0.6z"/>
		<path class="st2" d="M58.1,12.3c-2.3-3.9-4.2-7.6-5.9-11.4c0-0.1-0.2-0.3-0.3-0.3c-0.2,0-0.5,0-0.8,0c0.3,0.9,0.5,1.8,0.7,2.7
			c0.9,2.8,1.9,5.6,3,8.4c0.1,0.2,0.4,0.5,0.5,0.5C56.3,12.3,57.2,12.3,58.1,12.3z"/>
		<path class="st2" d="M46.7,10.1c2.4,0,4.7,0,7.1,0.1c-0.2-0.7-0.5-1.3-0.7-1.9c-1.9,0-3.8,0-5.7-0.1C47.1,8.9,46.9,9.5,46.7,10.1z
			"/>
		<path class="st2" d="M52.4,6.4c-0.1-0.4-0.2-0.8-0.4-1.1C52,5.1,51.8,5,51.7,4.9c-1,0-2,0-3.1,0c-0.1,0-0.3,0.1-0.3,0.2
			c-0.1,0.4-0.2,0.9-0.4,1.3C49.5,6.4,50.9,6.4,52.4,6.4z"/>
		<path class="st2" d="M51.1,2c-0.7,0-1.4,0-2.1,0c-0.1,0.4-0.2,0.8-0.3,1.3c0.9,0,1.8,0,2.7,0C51.3,2.8,51.2,2.4,51.1,2z"/>
		<path class="st2" d="M44,8.1c-0.4,0.1-0.8,0.1-0.9,0.3c-0.4,0.5-0.6,1.1-1,1.7c0,0,0,0.1,0.1,0.1c0.3-0.1,0.6-0.1,0.8-0.3
			C43.3,9.4,43.6,8.8,44,8.1z"/>
		<path class="st2" d="M56.5,8.4c0.8,1.8,1,2,1.8,1.9C57.7,8.7,57.3,8.3,56.5,8.4z"/>
		<path class="st2" d="M54.7,5c0.7,1.6,0.7,1.6,1.3,1.4C55.4,5,55.4,4.9,54.7,5z"/>
		<path class="st2" d="M44.3,6.3c0.7,0.1,0.5,0.4,1.3-1.4C45,4.8,45.1,4.6,44.3,6.3z"/>
		<path class="st2" d="M54.3,3.4c-0.3-1.1-0.5-1.4-1-1.3C53.6,2.5,53.5,3.4,54.3,3.4z"/>
		<path class="st2" d="M46.9,2c-0.5-0.1-0.7,0.2-1,1.2C46.7,3.3,46.6,2.4,46.9,2z"/>
		<path class="st2" d="M48.9,0.6c-0.8,3.2-1.7,6.3-2.8,9.4c-0.2,0.6-0.4,1.1-0.6,1.6c-0.1,0.3-0.3,0.5-0.6,0.5c-0.8,0-1.6,0-2.5,0
			c0.3-0.6,0.6-1.1,0.9-1.6c1.6-3,3.1-6,4.3-9C48,0.5,48,0.5,48.9,0.6z"/>
		<path class="st2" d="M58.1,12.3c-1,0-1.8,0-2.6-0.1c-0.2,0-0.4-0.3-0.5-0.5c-1.1-2.8-2.1-5.6-3-8.4c-0.3-0.9-0.5-1.7-0.7-2.7
			c0.3,0,0.5,0,0.8,0c0.1,0,0.2,0.2,0.3,0.3C53.9,4.7,55.8,8.4,58.1,12.3z"/>
		<path class="st2" d="M46.7,10.1c0.2-0.7,0.4-1.3,0.6-1.9c1.9,0,3.8,0,5.7,0.1c0.2,0.6,0.4,1.2,0.7,1.9
			C51.4,10.2,49.1,10.2,46.7,10.1z"/>
		<path class="st2" d="M52.4,6.4c-1.5,0-3,0-4.5,0c0.1-0.5,0.2-0.9,0.4-1.3c0-0.1,0.2-0.2,0.3-0.2c1,0,2,0,3.1,0
			c0.1,0,0.3,0.2,0.4,0.3C52.2,5.6,52.3,6,52.4,6.4z"/>
		<path class="st2" d="M51.1,2c0.1,0.4,0.2,0.8,0.3,1.3c-0.9,0-1.8,0-2.7,0C48.9,2.8,48.9,2.4,49,2C49.7,2,50.4,2,51.1,2z"/>
		<path class="st2" d="M44,8.1c-0.4,0.7-0.7,1.3-1,1.8c-0.1,0.2-0.5,0.2-0.8,0.3c0,0,0-0.1-0.1-0.1c0.3-0.6,0.6-1.1,1-1.7
			C43.2,8.2,43.6,8.2,44,8.1z"/>
		<path class="st2" d="M56.5,8.4c0.8-0.1,1.1,0.3,1.8,1.9C57.5,10.4,57.3,10.2,56.5,8.4z"/>
		<path class="st2" d="M54.7,5C55.4,4.9,55.4,5,56,6.4C55.4,6.6,55.4,6.6,54.7,5z"/>
		<path class="st2" d="M44.3,6.3c0.8-1.8,0.7-1.5,1.3-1.4C44.8,6.7,45,6.4,44.3,6.3z"/>
		<path class="st2" d="M54.3,3.4c-0.8,0-0.7-0.9-1-1.3C53.7,2,53.9,2.3,54.3,3.4z"/>
		<path class="st2" d="M46.9,2c-0.4,0.4-0.2,1.4-1,1.2C46.3,2.2,46.4,1.9,46.9,2z"/>
	</g>
	<polygon class="st1" points="3.6,8.1 3.6,2.5 1,2.5 1,7.9 3.6,10.4 7.4,10.4 7.4,8.1 	"/>
	<path class="st1" d="M31.4,5.3c-0.8-0.2-1.1-0.3-1.1-0.5v0c0-0.2,0.2-0.3,0.6-0.3c0.7,0,1.6,0.2,2.4,0.8l1.3-1.8
		c-0.9-0.7-2.1-1.1-3.6-1.1c-2.2,0-3.4,1.2-3.4,2.7v0c0,1.7,1.6,2.2,3.4,2.6c0.9,0.2,1.1,0.3,1.1,0.5v0c0,0.2-0.2,0.3-0.7,0.3
		c-0.9,0-1.9-0.3-2.8-0.9l-0.1,0.1V10c0.8,0.4,1.8,0.5,2.8,0.5c2.1,0,3.5-1,3.5-2.7v0C34.8,6.2,33.5,5.7,31.4,5.3z"/>
	<polygon class="st1" points="35.1,2.5 35.1,4.7 37.4,4.7 37.4,10.4 37.6,10.4 40.1,8 40.1,4.7 42.4,4.7 42.4,2.5 	"/>
	<g>
		<polygon class="st1" points="69.9,2.5 67.2,2.5 67.2,5.2 		"/>
		<rect x="67.2" y="5.4" class="st1" width="2.7" height="5"/>
	</g>
	<polygon class="st1" points="22.6,8.2 22.6,7.4 26.4,7.4 26.4,5.5 22.6,5.5 22.6,4.6 26.7,4.6 26.7,2.5 22.7,2.5 19.9,5.3 
		19.9,10.4 26.8,10.4 26.8,8.2 	"/>
	<polygon class="st1" points="88,7.9 88,2.5 85.3,2.5 85.3,6 82.5,2.5 82.1,2.5 80,4.6 80,10.4 82.6,10.4 82.6,6.8 85.6,10.4 	"/>
	<path class="st1" d="M14.4,10.4l2-1.9l-2.5-6.1h-2.6l-3.4,8h2.8L11,9.4h2.8l0.4,1.1H14.4z M11.7,7.5l0.7-1.9l0.7,1.9H11.7z"/>
</g>
</svg>
