<?xml version="1.0" encoding="utf-8"?>
<!-- Generator: Adobe Illustrator 25.1.0, SVG Export Plug-In . SVG Version: 6.00 Build 0)  -->
<svg version="1.1" id="Layer_1" xmlns="http://www.w3.org/2000/svg" xmlns:xlink="http://www.w3.org/1999/xlink" x="0px" y="0px"
	 viewBox="0 0 236.8 39" style="enable-background:new 0 0 236.8 39;" xml:space="preserve">
<style type="text/css">
	.st0{fill:#58595B;}
	.st1{fill:url(#SVGID_1_);}
	.st2{fill:url(#SVGID_2_);}
	.st3{fill:url(#SVGID_3_);}
	.st4{fill:url(#SVGID_4_);}
	.st5{fill:url(#SVGID_5_);}
	.st6{fill:url(#SVGID_6_);}
	.st7{fill-rule:evenodd;clip-rule:evenodd;fill:#E96121;}
	.st8{fill-rule:evenodd;clip-rule:evenodd;fill:#EAAD20;}
	.st9{fill:url(#SVGID_7_);}
	.st10{fill:url(#SVGID_8_);}
	.st11{fill:url(#SVGID_9_);}
	.st12{fill:url(#SVGID_10_);}
	.st13{fill-rule:evenodd;clip-rule:evenodd;fill:#5EBA47;}
	.st14{fill-rule:evenodd;clip-rule:evenodd;fill:#B2499A;}
	.st15{fill:url(#SVGID_11_);}
	.st16{fill-rule:evenodd;clip-rule:evenodd;fill:#45C6EB;}
	.st17{fill:#72BE44;}
	.st18{fill:#8C8C8C;}
	.st19{fill:#BFBFBF;}
	.st20{fill:#81C241;}
	.st21{clip-path:url(#SVGID_13_);fill:#A5CD39;}
	.st22{fill:#595959;}
</style>
<g>
	<g>
		<g>
			<g>
				<g>
					<g>
						<path class="st0" d="M77.5,19.1h10.1v3H81V24h6v2.7h-6v2h6.7v3H77.5V19.1z"/>
						<path class="st0" d="M94.7,25.3l-4.1-6.2h4l2.2,3.5l2.2-3.5h3.9l-4.1,6.1l4.3,6.4h-4l-2.4-3.8l-2.4,3.8h-3.9L94.7,25.3z"/>
						<path class="st0" d="M106.2,19.1h5.4c3.2,0,5.2,1.6,5.2,4.4v0c0,3-2.3,4.5-5.4,4.5h-1.7v3.6h-3.5V19.1z M111.3,25.4
							c1.2,0,2-0.6,2-1.6v0c0-1.1-0.8-1.6-2-1.6h-1.6v3.3H111.3z"/>
						<path class="st0" d="M119.6,25.4L119.6,25.4c0-3.6,2.9-6.6,6.8-6.6c3.9,0,6.7,2.9,6.7,6.5v0c0,3.6-2.9,6.5-6.8,6.5
							C122.5,31.9,119.6,29,119.6,25.4z M129.6,25.4L129.6,25.4c0-1.8-1.3-3.4-3.2-3.4c-1.9,0-3.2,1.5-3.2,3.4v0
							c0,1.8,1.3,3.4,3.2,3.4C128.3,28.8,129.6,27.2,129.6,25.4z"/>
						<path class="st0" d="M135.7,29.8l1.9-2.3c1.2,1,2.6,1.5,4.1,1.5c0.9,0,1.4-0.3,1.4-0.9v0c0-0.5-0.4-0.8-2.1-1.2
							c-2.7-0.6-4.7-1.4-4.7-3.9v0c0-2.3,1.8-4,4.9-4c2.1,0,3.8,0.6,5.2,1.7l-1.7,2.5c-1.1-0.8-2.4-1.2-3.5-1.2
							c-0.8,0-1.3,0.4-1.3,0.8v0c0,0.6,0.4,0.8,2.2,1.2c2.9,0.6,4.7,1.6,4.7,3.9v0c0,2.6-2,4.1-5.1,4.1
							C139.4,31.9,137.3,31.2,135.7,29.8z"/>
						<path class="st0" d="M150.2,19.1h3.5v12.6h-3.5V19.1z"/>
						<path class="st0" d="M157.4,25.4L157.4,25.4c0-3.7,2.8-6.6,6.6-6.6c2.6,0,4.2,1.1,5.3,2.6l-2.6,2c-0.7-0.9-1.5-1.5-2.7-1.5
							c-1.8,0-3,1.5-3,3.3v0c0,1.9,1.2,3.4,3,3.4c1.3,0,2.1-0.6,2.8-1.5l2.6,1.9c-1.2,1.6-2.8,2.8-5.6,2.8
							C160.3,31.9,157.4,29.2,157.4,25.4z"/>
						<path class="st0" d="M172.8,19.1h3.5v12.6h-3.5V19.1z"/>
						<path class="st0" d="M179.9,25.4L179.9,25.4c0-3.6,2.9-6.6,6.8-6.6c3.9,0,6.7,2.9,6.7,6.5v0c0,3.6-2.9,6.5-6.8,6.5
							C182.8,31.9,179.9,29,179.9,25.4z M189.9,25.4L189.9,25.4c0-1.8-1.3-3.4-3.2-3.4c-1.9,0-3.2,1.5-3.2,3.4v0
							c0,1.8,1.3,3.4,3.2,3.4C188.7,28.8,189.9,27.2,189.9,25.4z"/>
						<path class="st0" d="M197.1,19.1h3.2l5.2,6.6v-6.6h3.4v12.6h-3.1l-5.4-6.9v6.9h-3.4V19.1z"/>
						<path class="st0" d="M213,19.1h10.1v3h-6.7V24h6v2.7h-6v2h6.7v3H213V19.1z"/>
						<path class="st0" d="M225.8,29.8l1.9-2.3c1.2,1,2.6,1.5,4.1,1.5c0.9,0,1.4-0.3,1.4-0.9v0c0-0.5-0.4-0.8-2.1-1.2
							c-2.7-0.6-4.7-1.4-4.7-3.9v0c0-2.3,1.8-4,4.9-4c2.1,0,3.8,0.6,5.2,1.7l-1.7,2.5c-1.1-0.8-2.4-1.2-3.5-1.2
							c-0.8,0-1.3,0.4-1.3,0.8v0c0,0.6,0.4,0.8,2.2,1.2c2.9,0.6,4.7,1.6,4.7,3.9v0c0,2.6-2,4.1-5.1,4.1
							C229.4,31.9,227.3,31.2,225.8,29.8z"/>
					</g>
				</g>
				<linearGradient id="SVGID_1_" gradientUnits="userSpaceOnUse" x1="226.7636" y1="20.9579" x2="236.3854" y2="20.9579">
					<stop  offset="0" style="stop-color:#FFFFFF;stop-opacity:0"/>
					<stop  offset="0.1364" style="stop-color:#CDCDCD;stop-opacity:0.1364"/>
					<stop  offset="0.2947" style="stop-color:#9B9B9B;stop-opacity:0.2947"/>
					<stop  offset="0.4513" style="stop-color:#717171;stop-opacity:0.4513"/>
					<stop  offset="0.6027" style="stop-color:#505050;stop-opacity:0.6027"/>
					<stop  offset="0.7476" style="stop-color:#393939;stop-opacity:0.7476"/>
					<stop  offset="0.8831" style="stop-color:#2B2B2B;stop-opacity:0.8831"/>
					<stop  offset="1" style="stop-color:#262626"/>
				</linearGradient>
				<path class="st1" d="M231.2,18.9c-2.2,0-3.8,0.9-4.5,2.3l3.3,1c0.2-0.2,0.6-0.4,1.1-0.4c1.1,0,2.4,0.4,3.5,1.2l1.7-2.5
					C235,19.5,233.4,18.9,231.2,18.9z"/>
				<linearGradient id="SVGID_2_" gradientUnits="userSpaceOnUse" x1="140.8024" y1="29.3208" x2="137.451" y2="29.0738">
					<stop  offset="0" style="stop-color:#FFFFFF;stop-opacity:0"/>
					<stop  offset="0.1364" style="stop-color:#CDCDCD;stop-opacity:0.1364"/>
					<stop  offset="0.2947" style="stop-color:#9B9B9B;stop-opacity:0.2947"/>
					<stop  offset="0.4513" style="stop-color:#717171;stop-opacity:0.4513"/>
					<stop  offset="0.6027" style="stop-color:#505050;stop-opacity:0.6027"/>
					<stop  offset="0.7476" style="stop-color:#393939;stop-opacity:0.7476"/>
					<stop  offset="0.8831" style="stop-color:#2B2B2B;stop-opacity:0.8831"/>
					<stop  offset="1" style="stop-color:#262626"/>
				</linearGradient>
				<path class="st2" d="M143.2,28.1L143.2,28.1c0,0.6-0.5,0.9-1.4,0.9c-1.5,0-2.8-0.5-4.1-1.5l-1.9,2.3c1.5,1.4,3.7,2.1,5.9,2.1
					c3.1,0,5.1-1.5,5.1-4.1v0c0-0.2,0-0.4,0-0.5h-4.4C143,27.5,143.2,27.7,143.2,28.1z"/>
				
					<linearGradient id="SVGID_3_" gradientUnits="userSpaceOnUse" x1="2828.4365" y1="309.0648" x2="2833.3684" y2="302.5959" gradientTransform="matrix(-1 0 0 -1 3015.3369 334.21)">
					<stop  offset="0" style="stop-color:#FFFFFF;stop-opacity:0"/>
					<stop  offset="0.1364" style="stop-color:#CDCDCD;stop-opacity:0.1364"/>
					<stop  offset="0.2947" style="stop-color:#9B9B9B;stop-opacity:0.2947"/>
					<stop  offset="0.4513" style="stop-color:#717171;stop-opacity:0.4513"/>
					<stop  offset="0.6027" style="stop-color:#505050;stop-opacity:0.6027"/>
					<stop  offset="0.7476" style="stop-color:#393939;stop-opacity:0.7476"/>
					<stop  offset="0.8831" style="stop-color:#2B2B2B;stop-opacity:0.8831"/>
					<stop  offset="1" style="stop-color:#262626"/>
				</linearGradient>
				<path class="st3" d="M193.5,25.4L193.5,25.4c0,3.6-2.9,6.6-6.8,6.6c-3.9,0-6.7-2.9-6.7-6.5v0c0-3.6,2.9-6.5,6.8-6.5
					C190.6,18.9,193.5,21.7,193.5,25.4z M183.5,25.4L183.5,25.4c0,1.8,1.3,3.4,3.2,3.4c1.9,0,3.2-1.5,3.2-3.4v0
					c0-1.8-1.3-3.4-3.2-3.4C184.8,22,183.5,23.5,183.5,25.4z"/>
				<linearGradient id="SVGID_4_" gradientUnits="userSpaceOnUse" x1="161.7422" y1="29.0315" x2="166.8481" y2="27.4402">
					<stop  offset="0" style="stop-color:#FFFFFF;stop-opacity:0"/>
					<stop  offset="0.1206" style="stop-color:#D4D4D4;stop-opacity:0.1206"/>
					<stop  offset="0.2784" style="stop-color:#A4A4A4;stop-opacity:0.2784"/>
					<stop  offset="0.4351" style="stop-color:#7B7B7B;stop-opacity:0.4351"/>
					<stop  offset="0.5879" style="stop-color:#5C5C5C;stop-opacity:0.5879"/>
					<stop  offset="0.7353" style="stop-color:#454545;stop-opacity:0.7353"/>
					<stop  offset="0.8754" style="stop-color:#383838;stop-opacity:0.8754"/>
					<stop  offset="1" style="stop-color:#333333"/>
				</linearGradient>
				<path class="st4" d="M163.9,31.9c2.8,0,4.4-1.2,5.6-2.8l-2.6-1.9c-0.8,0.9-1.5,1.5-2.8,1.5c-1.4,0-2.5-1-2.9-2.3h-3.6
					C157.9,29.6,160.6,31.9,163.9,31.9z"/>
				<linearGradient id="SVGID_5_" gradientUnits="userSpaceOnUse" x1="203.4247" y1="25.8992" x2="196.4996" y2="17.3514">
					<stop  offset="0" style="stop-color:#FFFFFF;stop-opacity:0"/>
					<stop  offset="0.1206" style="stop-color:#D4D4D4;stop-opacity:0.1206"/>
					<stop  offset="0.2784" style="stop-color:#A4A4A4;stop-opacity:0.2784"/>
					<stop  offset="0.4351" style="stop-color:#7B7B7B;stop-opacity:0.4351"/>
					<stop  offset="0.5879" style="stop-color:#5C5C5C;stop-opacity:0.5879"/>
					<stop  offset="0.7353" style="stop-color:#454545;stop-opacity:0.7353"/>
					<stop  offset="0.8754" style="stop-color:#383838;stop-opacity:0.8754"/>
					<stop  offset="1" style="stop-color:#333333"/>
				</linearGradient>
				<path class="st5" d="M197.1,19.1h3.2l5.2,6.6v-6.6h3.4v12.6h-3.1l-5.4-6.9v6.9h-3.4V19.1z"/>
				<linearGradient id="SVGID_6_" gradientUnits="userSpaceOnUse" x1="126.8531" y1="24.8071" x2="131.785" y2="18.3381">
					<stop  offset="0" style="stop-color:#FFFFFF;stop-opacity:0"/>
					<stop  offset="0.1364" style="stop-color:#CDCDCD;stop-opacity:0.1364"/>
					<stop  offset="0.2947" style="stop-color:#9B9B9B;stop-opacity:0.2947"/>
					<stop  offset="0.4513" style="stop-color:#717171;stop-opacity:0.4513"/>
					<stop  offset="0.6027" style="stop-color:#505050;stop-opacity:0.6027"/>
					<stop  offset="0.7476" style="stop-color:#393939;stop-opacity:0.7476"/>
					<stop  offset="0.8831" style="stop-color:#2B2B2B;stop-opacity:0.8831"/>
					<stop  offset="1" style="stop-color:#262626"/>
				</linearGradient>
				<path class="st6" d="M119.6,25.4L119.6,25.4c0-3.6,2.9-6.6,6.8-6.6c3.9,0,6.7,2.9,6.7,6.5v0c0,3.6-2.9,6.5-6.8,6.5
					C122.5,31.9,119.6,29,119.6,25.4z M129.6,25.4L129.6,25.4c0-1.8-1.3-3.4-3.2-3.4c-1.9,0-3.2,1.5-3.2,3.4v0
					c0,1.8,1.3,3.4,3.2,3.4C128.3,28.8,129.6,27.2,129.6,25.4z"/>
				<polygon class="st7" points="172.8,19.1 176.3,19.1 172.8,23.9 				"/>
				<polygon class="st8" points="197.1,19.1 200.3,19.1 197.1,23.9 				"/>
				<linearGradient id="SVGID_7_" gradientUnits="userSpaceOnUse" x1="99.8524" y1="24.7268" x2="99.8524" y2="19.8705">
					<stop  offset="0" style="stop-color:#FFFFFF;stop-opacity:0"/>
					<stop  offset="0.1364" style="stop-color:#CDCDCD;stop-opacity:0.1364"/>
					<stop  offset="0.2947" style="stop-color:#9B9B9B;stop-opacity:0.2947"/>
					<stop  offset="0.4513" style="stop-color:#717171;stop-opacity:0.4513"/>
					<stop  offset="0.6027" style="stop-color:#505050;stop-opacity:0.6027"/>
					<stop  offset="0.7476" style="stop-color:#393939;stop-opacity:0.7476"/>
					<stop  offset="0.8831" style="stop-color:#2B2B2B;stop-opacity:0.8831"/>
					<stop  offset="1" style="stop-color:#262626"/>
				</linearGradient>
				<polygon class="st9" points="98.7,25.4 96.8,22.6 99,19.1 102.9,19.1 				"/>
				
					<linearGradient id="SVGID_8_" gradientUnits="userSpaceOnUse" x1="2524.7063" y1="230.7179" x2="2524.7063" y2="225.0247" gradientTransform="matrix(-1 0 0 -1 2632.6611 255.7589)">
					<stop  offset="0" style="stop-color:#FFFFFF;stop-opacity:0"/>
					<stop  offset="0.1364" style="stop-color:#CDCDCD;stop-opacity:0.1364"/>
					<stop  offset="0.2947" style="stop-color:#9B9B9B;stop-opacity:0.2947"/>
					<stop  offset="0.4513" style="stop-color:#717171;stop-opacity:0.4513"/>
					<stop  offset="0.6027" style="stop-color:#505050;stop-opacity:0.6027"/>
					<stop  offset="0.7476" style="stop-color:#393939;stop-opacity:0.7476"/>
					<stop  offset="0.8831" style="stop-color:#2B2B2B;stop-opacity:0.8831"/>
					<stop  offset="1" style="stop-color:#262626"/>
				</linearGradient>
				<rect x="106.2" y="24.3" class="st10" width="3.5" height="7.4"/>
				
					<linearGradient id="SVGID_9_" gradientUnits="userSpaceOnUse" x1="-5.7924" y1="25.1299" x2="-5.7924" y2="19.5588" gradientTransform="matrix(1 0 0 1 157.7871 0.4238)">
					<stop  offset="0" style="stop-color:#FFFFFF;stop-opacity:0"/>
					<stop  offset="0.1364" style="stop-color:#CDCDCD;stop-opacity:0.1364"/>
					<stop  offset="0.2947" style="stop-color:#9B9B9B;stop-opacity:0.2947"/>
					<stop  offset="0.4513" style="stop-color:#717171;stop-opacity:0.4513"/>
					<stop  offset="0.6027" style="stop-color:#505050;stop-opacity:0.6027"/>
					<stop  offset="0.7476" style="stop-color:#393939;stop-opacity:0.7476"/>
					<stop  offset="0.8831" style="stop-color:#2B2B2B;stop-opacity:0.8831"/>
					<stop  offset="1" style="stop-color:#262626"/>
				</linearGradient>
				<rect x="150.2" y="19.1" class="st11" width="3.5" height="7.2"/>
				
					<linearGradient id="SVGID_10_" gradientUnits="userSpaceOnUse" x1="986.8019" y1="1401.8605" x2="986.8019" y2="1392.5117" gradientTransform="matrix(0 1 -1 0 1479.6299 -956.6115)">
					<stop  offset="0" style="stop-color:#FFFFFF;stop-opacity:0"/>
					<stop  offset="4.650450e-02" style="stop-color:#F0F0F0;stop-opacity:4.650450e-02"/>
					<stop  offset="0.2193" style="stop-color:#BFBFBF;stop-opacity:0.2193"/>
					<stop  offset="0.3905" style="stop-color:#969696;stop-opacity:0.3905"/>
					<stop  offset="0.5568" style="stop-color:#767676;stop-opacity:0.5568"/>
					<stop  offset="0.7167" style="stop-color:#5F5F5F;stop-opacity:0.7167"/>
					<stop  offset="0.8675" style="stop-color:#515151;stop-opacity:0.8675"/>
					<stop  offset="1" style="stop-color:#4D4D4D"/>
				</linearGradient>
				<rect x="77.5" y="28.7" class="st12" width="10.2" height="3"/>
				<polygon class="st13" points="99,19.1 102.9,19.1 96.8,22.6 				"/>
				<polygon class="st7" points="109.7,31.7 106.2,31.7 109.7,28.1 				"/>
				<polygon class="st14" points="87.7,31.7 84.7,31.7 87.7,28.7 				"/>
				
					<linearGradient id="SVGID_11_" gradientUnits="userSpaceOnUse" x1="986.8019" y1="1266.429" x2="986.8019" y2="1257.0819" gradientTransform="matrix(0 1 -1 0 1479.6299 -956.6115)">
					<stop  offset="0" style="stop-color:#FFFFFF;stop-opacity:0"/>
					<stop  offset="4.650450e-02" style="stop-color:#F0F0F0;stop-opacity:4.650450e-02"/>
					<stop  offset="0.2193" style="stop-color:#BFBFBF;stop-opacity:0.2193"/>
					<stop  offset="0.3905" style="stop-color:#969696;stop-opacity:0.3905"/>
					<stop  offset="0.5568" style="stop-color:#767676;stop-opacity:0.5568"/>
					<stop  offset="0.7167" style="stop-color:#5F5F5F;stop-opacity:0.7167"/>
					<stop  offset="0.8675" style="stop-color:#515151;stop-opacity:0.8675"/>
					<stop  offset="1" style="stop-color:#4D4D4D"/>
				</linearGradient>
				<rect x="213" y="28.7" class="st15" width="10.2" height="3"/>
				<polygon class="st14" points="223.1,31.7 220.2,31.7 223.1,28.7 				"/>
				<path class="st16" d="M127.4,18.9l5.5,4.6C132.2,21.1,130.1,19.3,127.4,18.9z"/>
				<path class="st16" d="M185.8,31.9l-5.5-4.6C180.9,29.7,183,31.5,185.8,31.9z"/>
				<path class="st8" d="M137.7,27.5l-1.9,2.3c0.7,0.6,1.6,1.1,2.5,1.5L137.7,27.5z"/>
				<path class="st13" d="M165.5,31.8c1.5-0.3,2.6-1,3.4-2l0.5-0.7l-2.6-1.9L165.5,31.8z"/>
				<path class="st13" d="M234.6,23C234.6,23,234.6,23,234.6,23l1.7-2.5c-0.7-0.5-1.4-1-2.3-1.2L234.6,23z"/>
				<polygon class="st14" points="150.2,19.1 153.7,19.1 150.2,23.9 				"/>
			</g>
			<g>
				<path class="st0" d="M77.5,10.2L77.5,10.2c0-2.3,1.7-4.1,4.1-4.1c1.5,0,2.3,0.5,3.1,1.2l-0.9,1c-0.6-0.6-1.3-1-2.2-1
					c-1.5,0-2.6,1.2-2.6,2.8v0c0,1.6,1.1,2.8,2.6,2.8c1,0,1.6-0.4,2.3-1l0.9,0.9c-0.8,0.9-1.7,1.4-3.2,1.4
					C79.2,14.3,77.5,12.5,77.5,10.2z"/>
				<path class="st0" d="M87.4,6.2h5.9v1.2h-4.5v2.1h4v1.2h-4v2.1h4.5v1.2h-5.9V6.2z"/>
				<path class="st0" d="M96.1,6.2h1.3l4.2,5.5V6.2h1.4v7.9h-1.2l-4.4-5.6v5.6h-1.4V6.2z"/>
				<path class="st0" d="M108.1,7.5h-2.5V6.2h6.4v1.3h-2.5v6.6h-1.4V7.5z"/>
				<path class="st0" d="M114.6,6.2h3.5c1,0,1.8,0.3,2.3,0.8c0.4,0.4,0.7,1,0.7,1.7v0c0,1.3-0.8,2.1-1.9,2.4l2.1,3h-1.6l-1.9-2.8
					H116v2.8h-1.4V6.2z M118.1,10.2c1,0,1.6-0.5,1.6-1.3v0c0-0.8-0.6-1.3-1.6-1.3h-2v2.7H118.1z"/>
				<path class="st0" d="M123.6,10.2L123.6,10.2c0-2.3,1.7-4.1,4.2-4.1c2.4,0,4.1,1.8,4.1,4.1v0c0,2.2-1.7,4.1-4.2,4.1
					C125.3,14.3,123.6,12.4,123.6,10.2z M130.4,10.2L130.4,10.2c0-1.6-1.1-2.8-2.7-2.8c-1.6,0-2.7,1.3-2.7,2.8v0
					c0,1.5,1.1,2.8,2.7,2.8C129.3,13,130.4,11.8,130.4,10.2z"/>
				<path class="st17" d="M139.2,6.2h1.5l2.4,3.7l2.4-3.7h1.5v7.9h-1.4V8.5l-2.5,3.7h0l-2.5-3.7v5.7h-1.4V6.2z"/>
				<path class="st17" d="M150.2,10.8V6.2h1.4v4.5c0,1.5,0.8,2.3,2,2.3c1.2,0,2-0.7,2-2.2V6.2h1.4v4.5c0,2.4-1.3,3.6-3.4,3.6
					C151.5,14.3,150.2,13.1,150.2,10.8z"/>
				<path class="st17" d="M160.1,6.2h1.3l4.2,5.5V6.2h1.4v7.9h-1.2l-4.4-5.6v5.6h-1.4V6.2z"/>
				<path class="st17" d="M170.4,6.2h1.4v7.9h-1.4V6.2z"/>
				<path class="st17" d="M174.8,10.2L174.8,10.2c0-2.3,1.7-4.1,4.1-4.1c1.5,0,2.3,0.5,3.1,1.2l-0.9,1c-0.6-0.6-1.3-1-2.2-1
					c-1.5,0-2.6,1.2-2.6,2.8v0c0,1.6,1.1,2.8,2.6,2.8c1,0,1.6-0.4,2.3-1l0.9,0.9c-0.8,0.9-1.7,1.4-3.2,1.4
					C176.6,14.3,174.8,12.5,174.8,10.2z"/>
				<path class="st17" d="M184.9,6.2h1.4v7.9h-1.4V6.2z"/>
				<path class="st17" d="M189.6,6.2h3.1c1.8,0,3,1.1,3,2.6v0c0,1.8-1.4,2.7-3.2,2.7H191v2.5h-1.4V6.2z M192.6,10.3
					c1.1,0,1.7-0.6,1.7-1.4v0c0-0.9-0.7-1.4-1.7-1.4H191v2.9H192.6z"/>
				<path class="st17" d="M200.5,6.2h1.3l3.5,8h-1.5l-0.8-1.9h-3.7l-0.8,1.9H197L200.5,6.2z M202.5,11l-1.4-3.2l-1.4,3.2H202.5z"/>
				<path class="st17" d="M207.9,6.2h1.4v6.7h4.2v1.3h-5.6V6.2z"/>
				<path class="st0" d="M220.8,6.2h3c2.5,0,4.2,1.7,4.2,3.9v0c0,2.2-1.7,4-4.2,4h-3V6.2z M223.7,12.9c1.7,0,2.8-1.1,2.8-2.7v0
					c0-1.5-1.1-2.7-2.8-2.7h-1.6v5.4H223.7z"/>
				<path class="st0" d="M230.9,6.2h5.9v1.2h-4.5v2.1h4v1.2h-4v2.1h4.5v1.2h-5.9V6.2z"/>
			</g>
		</g>
	</g>
	<g>
		<g>
			<rect x="54.1" y="34" class="st18" width="5" height="5"/>
			<rect x="9.6" y="34" class="st18" width="5" height="5"/>
			<polygon class="st19" points="50.6,0 55.3,26.6 43.2,35.7 42.5,7.9 			"/>
			<polygon class="st18" points="17.8,0.2 26.1,7.9 25.1,35.7 13.1,26.4 			"/>
			<polygon class="st19" points="8.8,5.8 16.5,0.3 11.8,26.3 0,35.4 			"/>
			<path class="st20" d="M30.4,33.9c-1.9,0.6-3.3,1.5-4,2l1-27.9c0.4-0.2,2-1.2,4.3-1.7C35,5.5,38.2,6,41.2,8l0.8,28
				C37,32.9,32.9,33.1,30.4,33.9z"/>
			<polygon class="st18" points="56.6,26.5 51.9,0.1 59.6,5.8 68.2,35.4 			"/>
			<g>
				<defs>
					<polygon id="SVGID_12_" points="42.5,37.1 34.2,39 34.2,4.5 41.6,6.9 					"/>
				</defs>
				<clipPath id="SVGID_13_">
					<use xlink:href="#SVGID_12_"  style="overflow:visible;"/>
				</clipPath>
				<path class="st21" d="M30.4,33.9c-1.9,0.6-3.3,1.5-4,2l1-27.9c0.4-0.2,2-1.2,4.3-1.7C35,5.5,38.2,6,41.2,8l0.8,28
					C37,32.9,32.9,33.1,30.4,33.9z"/>
			</g>
			<g>
				<polygon class="st22" points="14.6,39 9.6,39 9.6,34 				"/>
			</g>
			<g>
				<polygon class="st22" points="59.1,39 54.1,39 54.1,34 				"/>
			</g>
		</g>
	</g>
</g>
</svg>
