<?xml version="1.0" encoding="utf-8"?>
<!-- Generator: Adobe Illustrator 25.1.0, SVG Export Plug-In . SVG Version: 6.00 Build 0)  -->
<svg version="1.1" id="Layer_1" xmlns="http://www.w3.org/2000/svg" xmlns:xlink="http://www.w3.org/1999/xlink" x="0px" y="0px"
	 viewBox="0 0 130.4 48.3" style="enable-background:new 0 0 130.4 48.3;" xml:space="preserve">
<style type="text/css">
	.st0{fill:#FFFFFF;}
	.st1{fill:#80C242;}
	.st2{fill:#3D577C;}
</style>
<g>
	<g>
		<path d="M24.1,48.3C10.8,48.3,0,37.4,0,24.1C0,10.8,10.8,0,24.1,0c13.3,0,24.1,10.8,24.1,24.1C48.3,37.4,37.4,48.3,24.1,48.3
			L24.1,48.3z"/>
		<path class="st0" d="M24.1,3.5c-11.4,0-20.6,9.2-20.6,20.6c0,11.4,9.2,20.6,20.6,20.6c11.4,0,20.6-9.2,20.6-20.6
			C44.7,12.8,35.5,3.5,24.1,3.5L24.1,3.5z"/>
		<path class="st1" d="M5.8,24.1C5.8,14,14,5.8,24.1,5.8c10.1,0,18.3,8.2,18.3,18.3c0,10.1-8.2,18.3-18.3,18.3
			C14,42.4,5.8,34.2,5.8,24.1z"/>
		<g>
			<path class="st0" d="M30.9,27.9c-0.3,0.1-0.3-0.1-0.6-0.1c-0.5,0.5-1.7,0.4-1.8-0.5c0-0.5,0.3-1.1,0.5-1.6
				c0.1-0.6,0.2-1.2,0.2-1.6c0.1,0,0,0.1,0.1,0.1c-0.1-1.1,0.4-2.3,0.5-3.6c0.2-3.3-1.1-6-3.4-7.3c-0.9-0.5-2.3-0.6-3.2,0.1
				c-0.8,0.6-4.5,2.6-4.7,3.7c0.3,0.2,0.3,1.7,0.4,1.8c1.4,0.9,5.1-2.9,5.8-2.7c0.8,0.2,0.9,2.3,0.9,3.5c0,0.7,0,1.5-0.2,2.1
				c-0.2,0.8-0.7,0.7-1.5,0.9c-0.7,0.2-1.3,0.4-1.8,0.7c-0.2,0.1-0.3,0.3-0.5,0.4c-0.3,0.2-0.7,0.4-1.1,0.6c-2,1.2-3.6,3.2-5.1,4.7
				c0,0.3-0.3,0.6-0.3,0.8c-0.2,1.2,0.4,1.9,0.9,2.5c0.2,0.3,0.5,0.8,0.8,1c1.7,1.6,4.9,1.4,6.8,1c1.3-0.6,2.6-1,3.9-1.5
				c0.7-0.3,1.3-0.6,1.9-0.9c0.9-0.4,1.8-1,3.1-1.1c0.1-0.2,0.4-0.3,0.5-0.6C32.7,29.2,31.6,28.7,30.9,27.9z M24.4,27.6
				c-0.2,0.9-0.1,2.1-1,2.3c-0.4,0.1-0.8,0.1-1.3,0.2c-0.5,0.1-0.9,0.2-1.2,0.2c-2,0-0.5-1.3,0.1-2c0.8-0.7,1.2-1.2,2-1.7
				c0.5-0.1,1-0.6,1.5-0.2C24.5,26.9,24.5,27.2,24.4,27.6z"/>
		</g>
	</g>
	<g>
		<path d="M129.4,26.8c-0.9,0.1-1.9-0.1-2.5,0c0-0.2-0.1-0.2,0-0.4c0-0.1,0.1-0.3,0.2-0.5c0.3-1.2,0.2-2.9,0.3-4.1
			c0,0-0.1,0.1-0.1,0c0-1.6,0.2-3.7-1.3-4.1c-1,0-1.8,0.7-2.5,1.4c-0.5,0.5-1.3,1.1-1.1,1.9c0.2,0,0.4-0.1,0.6-0.1
			c0.5-0.6,1.1-1.1,1.7-1.6c0.2,0,0.4-0.2,0.6-0.1c0.1,1.4-0.6,3.2-0.7,4.7c-0.2,0.3-0.5,0.4-0.9,0.6c-0.4,0.1-0.7,0.3-0.9,0.4
			c-0.7,0.3-1.8,0.7-2.4,1.2c-0.8,0.7-1.9,1.8-2.4,2.7c-0.4,0.9,0.2,2,0.5,2.5c0.4,0.3,1,0.3,1.6,0.4c0.2,0,0.3,0.1,0.4,0.2
			c1.2,0.2,2.5-0.5,3.7-0.9c0.3-0.1,0.6-0.1,0.9-0.2c0.2-0.1,0.4-0.3,0.7-0.4c0.3-0.1,0.5-0.3,0.7-0.4c0.9-0.9,2.1-1.5,3.1-2.3
			c0.2-0.1,0.6-0.3,0.8-0.7C130.2,26.6,129.8,26.8,129.4,26.8z M121.3,28c-0.1-0.5,0.3-0.7,0.6-0.9c0.4-0.3,0.8-0.6,1.6-0.7
			c0,0.1,0,0.1,0.1,0.1C123.8,27.7,122.3,27.8,121.3,28z"/>
		<path d="M118.9,26.3c0.5-0.4,0.8-0.8,1.2-1.2c0.4-0.6,0.8-1.3,0.8-2.1c-0.1-0.1,0-0.1-0.1-0.2c0-0.5-0.3-0.9-0.5-1.2
			c-0.4-0.4-0.8-0.8-1.3-1.2c-0.2-0.2-0.4-0.4-0.6-0.6c-0.8-0.6-1.9-0.9-2.9-1.1c-0.6-0.1-1.2-0.2-1.8-0.1c-0.7,0-0.6,0.8-0.9,1.4
			c-0.1,0.2-0.2,0.3-0.3,0.5c-0.1,0.3,0,0.7-0.1,1c-0.2,1-0.4,2-0.6,3.1c-0.1,0.8-0.4,1.5-0.5,2.3c-0.1,0.6,0,1.3,0.1,1.9
			c0,0.2-0.1,0.3,0,0.5c0.1,0.2,0.7,0.6,1,0.6c0.2,0,0.4-0.4,0.7-0.6c0.3-0.2,0.5-0.2,0.9-0.2c0.1-0.1,0.2-0.3,0.3-0.4
			c0.6-0.2,1-0.6,1.4-0.9c0.3-0.2,0.7-0.4,1.1-0.6c0.3-0.1,0.8-0.2,1.1-0.3C118.2,26.7,118.5,26.6,118.9,26.3z M116.5,25.3
			c-0.3,0.4-1.1,1.3-1.5,1.6c-0.2,0.2-0.5,0.3-0.7,0.3c-0.3-0.4-0.2-0.9-0.2-1.3c0-0.9-0.1-1.9-0.2-2.9c0-0.1-0.1,0.1-0.1-0.1
			c0.1-0.3,0-0.8,0-1.3c0-0.4,0-0.8,0.4-0.9c0.2,0,0.4,0.2,0.6,0.2c0.6,0.2,0.8,0.2,1.2,0.5C116.6,22.2,117.2,24.1,116.5,25.3z"/>
		<path d="M110.6,19.2c-0.2-0.1-0.7-0.4-1.1-0.6c-0.3-0.1-1-0.2-1.2-0.2c-0.7-0.2-1.2,0.3-1.7,0.2c-0.5,0.2-1.5,0.9-1.8,1.3
			c-0.2,0.2-0.4,0.6-0.6,0.9c-0.5,0.8-1,1.8-0.9,2.9c0,0.8,0.2,1.8,0.6,2.4c0.4,0.7,1.4,1.4,2.3,1.6c0.5,0.1,0.9,0.2,1.1,0.2
			c0.7,0,1.1-0.3,1.6-0.6c0.3-0.2,0.8-0.4,1.1-0.6c0.3-0.3,0.7-1.1,0.3-1.5c-0.8,0.1-1.7,0.4-2.7,0.3c-0.1,0-0.3-0.1-0.4-0.1
			c-0.3-0.2-0.6-0.6-0.4-1c0.1-0.4,0.9-0.4,1.3-0.5c0.7-0.5,1.5-0.7,2.1-1.2c0.4-0.3,0.5-0.8,0.9-1.1c0-0.7,0.4-1.1,0.3-1.7
			C111.2,19.9,110.8,19.4,110.6,19.2z M106.7,23.4c-0.3-0.2-0.4-1.3-0.3-1.8c0.1-0.5,0.5-1.5,1-1.8c0.3-0.2,0.9-0.2,1.1,0
			C108.5,21.3,107.9,23,106.7,23.4z"/>
		<path d="M102.3,21.4c-0.1-0.4-0.3-0.9-0.5-1.3c-0.4-0.8-0.7-1.6-2-1.4c-0.6,0.1-1.3,1.1-1.8,1.1c-0.7-0.1-0.5-1.8-1.4-1.8
			c-0.2,0-0.3,0.2-0.4,0.4c-0.2,0.7-0.1,1.5-0.2,2c0,0.2-0.2,1.5-0.2,1.8c0,0,0.1-0.1,0,0c0,1-1,3.5,0.4,3.7
			c0.3-0.3,0.5-0.9,0.9-1.1c0.2-0.4,0.2-0.9,0.2-1.4c0-0.2,0.2-0.4,0.2-0.6c0.1-0.4,0.1-0.8,0.2-1c0.1-0.3,0.8-0.9,1.1-0.9
			c0.4,0.1,0.3,1.2,0.4,1.7c0.2,2-0.2,3.6,0.1,5.5c0.7,0.3,0.8-0.5,1.4-0.9c0.3-0.2,0.7-0.3,0.9-0.5c0.3-0.3,0.5-0.7,0.7-1
			c0.1-0.3,0.2-1.1,0.2-1.5C102.5,23.4,102.5,22.2,102.3,21.4z"/>
		<path d="M96.2,27.7c-0.5-0.4-1.5-0.2-1.8-0.7c0-0.4,0-0.7,0-1c0.1-0.5,0.2-1,0.3-1.4c-0.2-0.7,0.1-1.8,0.1-2.7
			c0-0.2-0.1-0.4-0.1-0.5c0-0.8,0-1.3-0.1-2c-0.1-0.6-0.1-1.2-0.2-1.7c-0.1-0.7-0.4-1.5-1.2-1.3c-0.7,0.2-1.3,0.9-1.8,1.5
			c-0.2,0.3-0.5,0.6-0.7,1c-0.2,0.4-0.5,0.9,0,1.1c0.5-0.6,0.7-1.2,1.3-1.8c0.4-0.4,0.9-0.9,1.5-0.7c0.4,0.7,0,2.1,0.2,3.2
			c0.1,0.5,0,1.1,0,1.7c0,0.5,0,1-0.1,1.4c-0.1,0.7-0.8,0.9-1.3,1.2c-1.4,0.8-2.4,1.8-3.8,2.5c-0.2,0.3-0.5,0.4-0.6,0.8
			c-0.1,0.5,0.2,1.1,0.2,1.6c0.9,1.4,2.5,1.3,4.2,1.1c0.3,0,0.7,0,1-0.1c1.1-0.2,1.7-0.9,2.7-1.1c0.4-0.2,0.5-0.4,0.7-0.9
			C96.6,28.3,96.6,28,96.2,27.7z M92.8,27.5c-0.3,0.2-0.8,0.2-1.3,0.3c-0.5,0.1-0.9,0.3-1.3,0.2c0-0.8,1.1-0.9,1.5-1.4
			c0.4-0.1,0.7-0.4,1.1-0.6c0.1,0.1,0.2,0.1,0.3,0.2C93.1,26.7,93.2,27.3,92.8,27.5z"/>
		<path d="M89.3,25.3c0.2-0.2,0.3-0.5,0.3-0.8c-0.7,0-1.3,0.4-1.9,0.8c-0.3,0.2-0.6,0.4-0.8,0.6c-0.3,0.2-0.6,0.4-0.9,0.3
			c-0.1-0.5,0.1-1.4,0.1-1.9c0.3-0.8,0.2-2,0.3-2.9c0.1-0.9,0.2-1.9-0.2-2.6c-0.3-0.4-1.2-1.1-1.9-0.5c-0.7,2.8-1.1,4.8-0.6,7.6
			c0,0.1-0.1-0.1-0.1,0.1c0.2,1.1,0.1,2.4,0.3,3.2c1.1,0.2,1.6-0.8,2.3-1.3C86.9,26.8,88.4,26.3,89.3,25.3z"/>
		<path d="M80.5,25.7c0.1-1.8-0.1-3.9-0.1-5.7c0,0,0.1,0,0.1,0c-0.2-0.8,0.2-1.7-0.4-2.1c0,0-0.1,0-0.1,0c-0.3,0.6-0.6,1.2-0.9,1.6
			c-0.3,1.6-0.9,3.5-1.2,5.3c-0.1,0,0-0.1-0.1-0.1c0,0.4-0.2,0.7-0.2,1.2c-0.1,0,0-0.1-0.1-0.1c-0.1,1.4-0.3,3,0.6,3.7
			c0.5,0.1,1-0.3,1.4-0.5c0.9-0.2,1.4-0.8,1.9-1.2c0.3-0.3,1.4-0.8,1.4-1.2c-0.8,0.1-1.8,0.7-2.5,0.7C80,27,80.5,26.3,80.5,25.7z"/>
		<path d="M74.3,24.6c-0.3-0.1-0.6-0.3-0.8-0.6c0.3-0.4,0.7-0.4,1.1-0.6c0.9-0.6,1.5-1.6,1.7-2.8c0.1-0.7-0.1-1.1-0.5-1.5
			c-0.3,0-0.5-0.1-0.8-0.2c-0.6,0.2-1.3,0.2-1.8,0.3c-0.7,0.2-1.2,0.7-1.7,1.3c-0.4,0.4-0.9,1-1,1.6c-0.1,0.7-0.4,1.4-0.3,2.1
			c0.1,0.7,0.5,1.4,0.9,1.9c0.4,0.5,0.9,1.2,1.5,1.4c0.9,0.3,1.7-0.1,2.5,0.1c0.6-0.3,0.7-1.1,1.2-1.5c0-0.4,0.5-0.5,0.4-1
			C75.9,25,75.1,24.8,74.3,24.6z M73,22.9c-0.2-0.2-0.2-0.4-0.2-0.7c0-0.5,0.7-1.6,1.2-1.9c0.5-0.2,1.2-0.2,1.3,0.4
			c0.1,0.9-0.7,1.3-1.1,1.9C73.8,22.7,73.6,23,73,22.9z"/>
		<path d="M69.6,18.5c-0.9,1.3-1.7,2.7-2.3,4.3c-0.2,0.5-0.4,1.2-0.8,1.4c-0.6-0.8-1.1-1.9-2.5-1.8c-0.2,0.3-0.4,0.8-0.3,1.4
			c0,0.2,0.2,0.3,0.2,0.5c0.3,1.2,0.5,2.4,0.9,3.3c0.1,0.3,0.3,0.5,0.5,0.7c0.2,0.3,0.3,0.6,0.6,0.7c0.5,0.3,1.3,0.3,1.7,0
			c0.2-0.1,0.5-0.5,0.6-0.8c0.1-0.4-0.1-1.1,0-1.4c0,0,0.1,0,0,0c0.3-1.7,1-3.5,1-4.9c0.2-0.4,0.4-1.1,0.5-1.7c0.4-0.9,1-2,1.2-3.1
			C70.3,17.4,69.9,18,69.6,18.5z"/>
		<path d="M61.7,26.1c0.2-0.2,0.2-0.2,0.5-0.3c0.1-0.3,0.7-0.5,0.6-1c-0.1-0.2-0.6-0.4-0.6-0.6c0-0.1,0.1-0.3,0.1-0.5
			c0-0.1-0.1-0.1-0.1-0.2c0,0,0.1-0.1,0.1-0.1c0.1-0.2,0.1-0.5,0.1-0.8c0.2-1.2,0.3-2.5,0.1-4c-0.2-0.3-0.6-0.8-1.1-1
			c-0.4,0-0.9,0-1,0c-0.6,0.4-1,1.1-1.4,1.8c-0.5,0.8-1,1.6-1.1,2.8c0,0.1,0.2,0.1,0.2,0.2c0.3,0.1,0.4-0.1,0.6-0.1
			c0.7-0.8,1.1-1.8,1.8-2.7c0.1,0,0.1,0,0.2,0c0.2,0,0.2,0.2,0.4,0.3c0,0.8,0,1.7-0.1,2.5c0,0-0.1,0.3-0.1,0.2
			c0.1,0.4-0.1,1.1-0.5,1.3c-0.9,0.2-1.9,0.8-2.7,1.2c-0.6,0.3-1.1,0.7-1.7,1c-0.9,0.5-1.8,0.9-2.4,1.6c-0.4,0.4-0.7,1.1-0.7,1.8
			c0,0.7,0.6,0.9,0.9,1.4c0.1,0.1,0-0.1,0.2,0c0,0.2,0.1,0.1,0.1,0.2c0.6,0.3,1.2,0.6,2,0.7c0.6,0.1,1.4,0,1.9-0.1
			c0.5-0.1,1.4-0.5,1.8-0.4c0.1,0.2,0.1,0.5,0.3,0.6c0.5-0.1,0.4-0.6,0.7-0.9c0.6-0.6,2-0.4,2.1-1.5c-0.4-0.4-1.5-0.2-1.6-0.7
			c-0.1-0.3,0.1-0.9,0.2-1.2C61.6,27,61.7,26.5,61.7,26.1z M59.8,28.7c-0.8-0.1-1.5,0-2-0.4c0.3-0.6,1-1.1,1.7-1.5
			c0.2-0.1,0.2-0.2,0.5-0.2C60.2,27.2,60.1,28.3,59.8,28.7z"/>
	</g>
	<g>
		<path class="st2" d="M69.1,34.6h0.8l0.8,2.3l0.8-2.3h0.8l-1.3,3.3h-0.6L69.1,34.6z"/>
		<path class="st2" d="M72.9,34.6h0.7v3.2h-0.7V34.6z"/>
		<path class="st2" d="M74.1,34.6h0.8l0.8,2.3l0.8-2.3h0.8l-1.3,3.3h-0.6L74.1,34.6z"/>
		<path class="st2" d="M78.5,34.6h0.7l1.4,3.3h-0.7l-0.3-0.7h-1.4l-0.3,0.7h-0.7L78.5,34.6z M79.3,36.5l-0.4-1l-0.4,1H79.3z"/>
		<path class="st2" d="M81.1,34.6h0.8l0.8,1.4l0.8-1.4h0.8v3.2h-0.7v-2.1l-0.9,1.4h0l-0.9-1.4v2.1h-0.7V34.6z"/>
		<path class="st2" d="M84.9,36.2L84.9,36.2c0-0.9,0.7-1.7,1.7-1.7c1,0,1.7,0.7,1.7,1.7v0c0,0.9-0.7,1.7-1.7,1.7
			C85.6,37.9,84.9,37.1,84.9,36.2z M87.6,36.2L87.6,36.2c0-0.6-0.4-1-1-1c-0.6,0-1,0.5-1,1v0c0,0.6,0.4,1,1,1
			C87.2,37.2,87.6,36.8,87.6,36.2z"/>
		<path class="st2" d="M88.7,37.4l0.4-0.5c0.3,0.2,0.6,0.4,1,0.4c0.3,0,0.5-0.1,0.5-0.3v0c0-0.2-0.1-0.3-0.7-0.4
			c-0.7-0.2-1.1-0.3-1.1-1v0c0-0.6,0.5-1,1.1-1c0.5,0,0.9,0.1,1.2,0.4l-0.4,0.5c-0.3-0.2-0.6-0.3-0.8-0.3c-0.3,0-0.4,0.1-0.4,0.3v0
			c0,0.2,0.1,0.3,0.7,0.4c0.7,0.2,1,0.4,1,1v0c0,0.6-0.5,1-1.2,1C89.6,37.9,89.1,37.7,88.7,37.4z"/>
		<path class="st2" d="M93.3,34.6h0.8l0.8,1.4l0.8-1.4h0.8v3.2h-0.7v-2.1l-0.9,1.4h0L94,35.7v2.1h-0.7V34.6z"/>
		<path class="st2" d="M97.3,34.6h2.4v0.6H98v0.7h1.5v0.6H98v0.7h1.8v0.6h-2.5V34.6z"/>
		<path class="st2" d="M100.1,37.4l0.4-0.5c0.2,0.2,0.4,0.3,0.6,0.3c0.3,0,0.4-0.2,0.4-0.5v-2.1h0.7v2.1c0,0.4-0.1,0.7-0.3,0.9
			c-0.2,0.2-0.5,0.3-0.8,0.3C100.6,37.9,100.3,37.7,100.1,37.4z"/>
		<path class="st2" d="M102.8,36.2L102.8,36.2c0-0.9,0.7-1.7,1.7-1.7c1,0,1.7,0.7,1.7,1.7v0c0,0.9-0.7,1.7-1.7,1.7
			C103.6,37.9,102.8,37.1,102.8,36.2z M105.5,36.2L105.5,36.2c0-0.6-0.4-1-1-1c-0.6,0-1,0.5-1,1v0c0,0.6,0.4,1,1,1
			C105.1,37.2,105.5,36.8,105.5,36.2z"/>
		<path class="st2" d="M106.9,34.6h1.5c0.4,0,0.7,0.1,0.9,0.3c0.2,0.2,0.3,0.4,0.3,0.7v0c0,0.5-0.3,0.8-0.7,1l0.8,1.2h-0.8l-0.7-1
			h-0.6v1h-0.7V34.6z M108.3,36.2c0.3,0,0.5-0.2,0.5-0.5v0c0-0.3-0.2-0.5-0.6-0.5h-0.7v0.9H108.3z"/>
	</g>
</g>
</svg>
